<?xml version="1.0" encoding="utf-8"?>
<svg version="1.1" id="Layer_1" xmlns="http://www.w3.org/2000/svg" xmlns:xlink="http://www.w3.org/1999/xlink" x="0px" y="0px"
	 viewBox="0 0 182 145" style="enable-background:new 0 0 182 145;" xml:space="preserve" width="182" height="145">
<style type="text/css">
	.st0{fill:#A7ABAB;}
</style>
<g>
	<g>
		<path class="st0" d="M20.8,130.4c-0.1-0.2-0.3-0.5-0.5-0.7c-0.3-0.2-0.6-0.2-1-0.2c-1.4,0-2.1,1.4-2.3,2.7c0.9-0.8,1.8-1,3-1
			c2.5,0,4.4,1.6,4.4,4.2c0,3.2-2.2,4.8-5.4,4.8c-3.9,0-5.6-3-5.6-6.2c0-4.1,1.9-7.1,5.9-7.1c2.8,0,4.5,1.1,4.9,3.6H20.8z
			 M17.2,135.3c0,1,0.7,1.8,1.8,1.8c1.1,0,1.9-0.8,1.9-1.8c0-0.9-0.7-1.7-1.9-1.7C18,133.6,17.2,134.4,17.2,135.3z"/>
		<path class="st0" d="M31.4,126.8c2.4,0,5.6,1.6,5.6,6.7c0,5-3.2,6.7-5.5,6.7s-5.5-1.6-5.5-6.7C25.9,128.4,29.1,126.8,31.4,126.8z
			 M31.4,137.2c1.9,0,2-2.4,2-3.8c0-1.3-0.1-3.8-2-3.8c-1.9,0-2,2.4-2,3.8C29.4,134.8,29.5,137.2,31.4,137.2z"/>
		<path class="st0" d="M38.6,133.4h5.9v3.1h-5.9V133.4z"/>
		<path class="st0" d="M49.6,136.5c0.1,0.3,0.3,0.5,0.6,0.7c0.3,0.1,0.6,0.2,0.9,0.2c1.7,0,2.1-1.6,2.3-2.6l0,0
			c-0.8,0.7-1.8,1-2.9,1c-2.5,0-4.4-1.5-4.4-4.1c0-3.2,2.5-4.9,5.5-4.9c3.8,0,5.5,2.9,5.5,6.2c0,4.1-1.9,7.1-5.9,7.1
			c-2.4,0-4.5-1-4.9-3.6H49.6z M49.5,131.5c0,1,0.9,1.8,1.9,1.8c1,0,1.9-0.7,1.9-1.7c0-1-0.8-1.8-1.8-1.8
			C50.4,129.7,49.5,130.5,49.5,131.5z"/>
		<path class="st0" d="M64,126.8c2.4,0,5.6,1.6,5.6,6.7c0,5-3.2,6.7-5.5,6.7c-2.4,0-5.5-1.6-5.5-6.7C58.5,128.4,61.7,126.8,64,126.8
			z M64,137.2c1.9,0,2-2.4,2-3.8c0-1.3-0.1-3.8-2-3.8c-1.9,0-2,2.4-2,3.8C62.1,134.8,62.2,137.2,64,137.2z"/>
		<path class="st0" d="M74.9,126.8c2.3,0,3.3,1.5,3.3,3.6c0,2.1-1,3.6-3.3,3.6c-2.3,0-3.3-1.5-3.3-3.6
			C71.6,128.2,72.6,126.8,74.9,126.8z M74.9,132.2c0.9,0,0.9-1.1,0.9-1.9s0-1.9-0.9-1.9s-0.9,1.1-0.9,1.9S74,132.2,74.9,132.2z
			 M82.6,126.4h2.1l-7.7,14h-2.1L82.6,126.4z M84.9,133c2.3,0,3.3,1.5,3.3,3.6c0,2.1-1,3.6-3.3,3.6s-3.3-1.5-3.3-3.6
			C81.6,134.4,82.6,133,84.9,133z M84.9,138.5c0.9,0,0.9-1.1,0.9-1.9s0-1.9-0.9-1.9s-0.9,1.1-0.9,1.9S84,138.5,84.9,138.5z"/>
		<path class="st0" d="M106.3,130.3l-0.9,1c1,1,1.4,2.3,1.4,3.7c0,2.7-1.6,5.1-5.3,5.1c-1.3,0-2.3-0.3-3.1-0.8l-1,1.2l-0.7-0.6
			l1-1.1c-1-1-1.5-2.3-1.5-3.8c0-2.7,1.6-5.1,5.3-5.1c1.3,0,2.3,0.3,3.2,0.8l0.9-1.1L106.3,130.3z M102.7,133.2
			c-0.2-0.3-0.6-0.5-1.1-0.5c-1.4,0-1.6,1.4-1.6,2.4c0,0.4,0,0.7,0.1,1.1L102.7,133.2z M100.5,137c0.2,0.3,0.6,0.4,1.1,0.4
			c1.4,0,1.6-1.4,1.6-2.4c0-0.3,0-0.7-0.1-1L100.5,137z"/>
		<path class="st0" d="M108.5,126.6h3.7v6.5l2.4-2.8h4.2l-3.5,3.7l4,6h-4.5l-2-3.5l-0.7,0.7v2.8h-3.7V126.6z"/>
		<path class="st0" d="M124.8,140.2c-3.7,0-5.3-2.4-5.3-5.1c0-2.7,1.6-5.1,5.3-5.1c3.6,0,5.3,2.4,5.3,5.1
			C130.1,137.8,128.4,140.2,124.8,140.2z M124.8,132.7c-1.4,0-1.6,1.4-1.6,2.4c0,1,0.2,2.4,1.6,2.4c1.4,0,1.6-1.4,1.6-2.4
			C126.4,134,126.2,132.7,124.8,132.7z"/>
		<path class="st0" d="M131.8,126.6h3.7v13.4h-3.7V126.6z"/>
		<path class="st0" d="M142.5,140.2c-3.7,0-5.3-2.4-5.3-5.1c0-2.7,1.6-5.1,5.3-5.1c3.6,0,5.3,2.4,5.3,5.1
			C147.8,137.8,146.1,140.2,142.5,140.2z M142.5,132.7c-1.4,0-1.6,1.4-1.6,2.4c0,1,0.2,2.4,1.6,2.4c1.4,0,1.6-1.4,1.6-2.4
			C144.1,134,143.9,132.7,142.5,132.7z"/>
		<path class="st0" d="M159.3,138.7c0,1.9-0.5,4.6-5.1,4.6c-2.3,0-4.7-0.6-5.1-3.2h3.7c0,0.1,0.1,0.2,0.2,0.3
			c0.2,0.3,0.6,0.7,1.1,0.7c1.2,0,1.5-1.4,1.5-2.2V138h0c-0.6,0.9-1.5,1.3-2.6,1.3c-2.9,0-4.2-2.1-4.2-4.7c0-2.5,1.4-4.6,4.2-4.6
			c1.1,0,2.1,0.4,2.5,1.4h0v-1.2h3.7V138.7z M154.2,137c1.4,0,1.5-1.3,1.5-2.4c0-1.1-0.5-1.9-1.6-1.9c-1,0-1.6,0.9-1.6,1.9
			C152.5,135.7,152.8,137,154.2,137z"/>
		<path class="st0" d="M165,129.2h-3.7v-2.6h3.7V129.2z M161.3,130.2h3.7v9.7h-3.7V130.2z"/>
	</g>
	<path class="st0" d="M148.8,4.5l0,1.3l-10.2,17.9l0.1,0.9c10.5,14.2,13.2,35.8,6.3,52.4c-4.7,13.2-17.4,26.1-30.8,30.4
		c-4.5,1.6-9.2,2.5-14.2,3l-27.4,0.2c-1.1-0.1-2.1-0.7-2.7-1.6c-0.6-1.1-0.5-2.7,0.2-3.8l9-15.7c2.7-3.5,6.6-0.3,10.1-0.5
		c13.1,1,25.5-5.2,32-16.9c5.2-8.9,5-22.7-0.5-31.4c-1.7-3.2-4.6-6.2-7.2-8.8c-0.6-1.1-0.3-2.7,0.3-3.8l12.9-22.5
		c1.3-1,2.5-2.1,4.1-2.2l15.6-0.2C147.5,3.3,148.4,3.6,148.8,4.5L148.8,4.5z"/>
	<path class="st0" d="M114.5,4.4c0.9,0.9,1,2.5,0.5,3.6l-9.4,16.4c-0.7,1-1.7,1.5-2.7,1.6c-4-0.6-7.8-1.8-12.1-1.3
		c-11.6,0.5-23,8-27.9,18.8c-4.8,9.6-3.7,23.2,2.6,31.7c1.6,3.6,7.2,5.2,5.9,9.8c-4.2,7.9-8.9,15.6-13.4,23.4
		c-1.1,1.3-2.5,1.9-3.9,2.3l-16.2,0c-0.8-0.1-1.5-0.8-1.6-1.6l0.2-1.3l10-17.7c-1.1-2.5-2.7-4.6-3.9-6.9c-9.5-16-8.5-40.3,1.9-55.5
		C53.5,12.8,68.8,4.7,85,3.3c8.9-0.3,17.5,0.1,26.3-0.1C112.5,3.5,113.8,3.3,114.5,4.4L114.5,4.4z"/>
	<path class="st0" d="M94.9,36.5c0.6,0.8,0.8,2,0.5,2.9c-0.1,1-1.1,1.7-1.8,2c-1,0.1-2.1,0.1-2.9-0.4c-0.9-0.5-1.2-1.4-1.3-2.3
		c-0.1-1.2,0.6-2.2,1.5-2.8C92.1,35.2,94,35.4,94.9,36.5L94.9,36.5z"/>
	<path class="st0" d="M107.8,45.7c4,0,8.2,2.3,9.6,6.2c2.7,6.3-2.9,10.9-6.7,15.2l-3,0.2l-33,0l-0.6-0.2c-3-4.1-8.3-7.4-7-13.1
		c0.4-3.1,2.7-6.2,5.7-7.4c1.3-0.5,2.7-0.7,4.1-0.8c2.4-3.1,5.8-4.8,9.7-4.1c2.2,0.2,3.9,1.6,5.6,3c1-0.5,1.8-1.5,2.8-2
		C99.3,40.4,105,41.8,107.8,45.7L107.8,45.7z M99.1,46c-1.7,0.2-3.4,1.5-3.9,3.3c0.9,0.4,2.1-0.1,3.1-0.2c1.6-0.4,3.4-0.7,4.7-1.6
		C102.1,46.3,100.6,45.7,99.1,46L99.1,46z M84.5,45.9c-1,0.3-2.4,0.5-2.9,1.7c2.4,1,5.2,2,8,1.8l0-0.6
		C88.7,46.9,86.6,45.8,84.5,45.9L84.5,45.9z M109.4,50.4c0.2,5.2-4.2,8.3-6.9,12.2l0.2,0.2c1.9,0.2,3.9,0.2,5.8,0
		c1.8-1.8,3.5-3.7,4.8-5.8c0.5-1.5,0.3-3.3-0.5-4.5C112.1,51.3,110.8,50.6,109.4,50.4L109.4,50.4z M75.2,50.5
		c-1.3,0.3-2.9,1.2-3.4,2.6c-2.1,4.2,2.2,7.1,4.6,9.9l5.5,0l0.4-0.3c-2.6-3.8-7.1-6.8-6.8-11.7L75.2,50.5L75.2,50.5z M104.3,52
		c-3,1.2-6.2,1.9-9.4,2.4c-0.1,2.9-0.3,5.7,0.1,8.5c0.6,0.2,1.2,0.1,1.6-0.2l7.5-9C104.2,53.2,104.7,52.4,104.3,52L104.3,52z
		 M80.6,52.3l-0.3,0.1c0.8,2.5,3.2,4.4,4.9,6.6c1.7,1.2,2.6,4.4,4.7,3.7c0.2-2.6,0.2-5.7,0-8.3C86.7,54,83.5,53.5,80.6,52.3
		L80.6,52.3z"/>
	<path class="st0" d="M110.3,69.5c0.3,1.3,0.2,2.7,0,4l-0.7,0.2l-35,0c-0.5-1.2-0.4-2.9,0-4.2C86.7,69.3,98.5,69.2,110.3,69.5
		L110.3,69.5z"/>
	<path class="st0" d="M24.5,25.6c0-7-2.8-18.5-4.3-23.3c-0.1-0.4-0.3-0.6-0.6-0.6c-0.2,0-0.4,0.1-0.5,0.4c0,0.8-0.4,18.1-0.5,18.6
		c-0.1,1.2-2.7,1.2-2.8,0.1c-0.1-0.5-1.8-18-1.9-18.1h0c0-0.3-0.2-0.7-0.7-0.7c-0.5,0-0.6,0.4-0.7,0.7h0c0,0.1-1.8,17.6-1.9,18.1
		c-0.1,1.1-2.8,1.1-2.8-0.1C7.8,20.2,7.4,2.8,7.4,2c0-0.3-0.2-0.4-0.5-0.4c-0.4,0-0.5,0.2-0.6,0.6C4.8,7.1,2,18.6,2,25.6
		c0,1.6-0.2,5.8,3.1,8.1c2.1,1.5,3.2,2.4,3.6,5.8c0.2,1.4,0.3,6.6,0.2,8.4c-0.1,2-0.7,24.7-0.7,24.7L7.6,91.8c0,0-0.5,13.3-0.5,13.9
		c0,2,0.4,2.9,1.5,3.6c0.9,0.6,2.6,0.9,4,0.9h1.3c1.4,0,3.1-0.3,4-0.9c1.1-0.7,1.5-1.7,1.5-3.6c0-0.6-0.5-13.9-0.5-13.9l-0.6-19.1
		c0,0-0.7-22.7-0.7-24.7c-0.1-1.8,0.1-7.1,0.2-8.4c0.4-3.4,1.5-4.3,3.6-5.8C24.6,31.4,24.5,27.2,24.5,25.6L24.5,25.6L24.5,25.6z"/>
	<path class="st0" d="M179,53c0,11.7,1,39.5,1,54.5c0,1.7-1.1,3-6.1,3c-2,0-5.1-0.8-6.1-3c-1.9-4.2,1.5-30.2,2.6-38.9
		c0.3-2.9,0-4.2-1.9-4.8c-5.6-1.8-7.5-2.6-7.5-3.9c0-0.3,0-0.6,0.1-1c9-44.3,16-54.7,16.6-55.5c0.5-0.8,1-1.2,1.3-1.2
		c0.5,0,0.7,0.2,0.7,1.9C179,40.6,179,40.6,179,53L179,53L179,53z"/>
</g>
</svg>
